<svg xmlns="http://www.w3.org/2000/svg" xmlns:xlink="http://www.w3.org/1999/xlink" version="1.1" x="0px" y="0px" width="100px" height="100px" viewBox="0 0 100 100" enable-background="new 0 0 100 100" xml:space="preserve">
<g id="Captions">
	<rect y="-36" width="100" height="30"/>
	<text transform="matrix(1 0 0 1 66 -19.5)" fill="#000000" font-family="'Helvetica'" font-size="2.4">http://thenounproject.com</text>
	<text transform="matrix(1 0 0 1 7.166 -24.5)"><tspan x="0" y="0" fill="#000000" font-family="'Helvetica-Bold'" font-size="6.1578">The Noun Project</tspan><tspan x="1.12" y="4.8" fill="#000000" font-family="'Helvetica-Bold'" font-size="4">Icon Template</tspan></text>
	<line fill="#000000" stroke="#FFFFFF" stroke-miterlimit="10" x1="8" y1="-14.5" x2="18" y2="-14.5"/>
	<path d="M97.044,91.587c-0.974-5.921-2.315-9.618-3.425-19.809c0.075-9.87-12.896-3.948-21.777-10.593   c-2.41-3.272-10.538-7.748-10.538-7.748c0.934,1.23,1.661,3.012,2.217,4.476c0.106,0.284-0.704,1.428-0.609,1.718   c3.866,11.867-0.969,28.129-7.514,37.191c0.942-10.069-2.217-27.27-3.489-32.449c0.905-0.347,0.888-1.53,1.391-1.252   c1.507,1.51,4.711,5.302,4.711,5.302L51.4,58.591l8.169-4.25c0.001,0,0.001,0,0.001,0l0,0l1.733-0.903c0,0-0.247,0.089-1.324-0.307   c-0.009-0.43-0.229-3.167,0.568-4.33c2.255-2.017,2.455-8.168,3.661-12.125c3.094-0.382,6.001-8.939,1.716-10.043   c0-0.956,0.552-2.803,0.485-3.742c-0.297-4.275-0.068-8.87-1.6-12.307c-3.898-5.6-5.217-8.079-14.181-8.614   c-4.787,0-13.108,2.882-13.108,7.031c-1.966,0-2.676,0.982-3.385,3.33c-0.934,3.601-1.255,6.032-1.037,10.863   c-0.082,0.952,0.673,3.205,0.673,4.176c-4.422,2.169-0.032,9.785,2.983,9.807c1.206,3.972,2.479,10.011,4.55,11.674   c1.047,0.997,0.441,3.444,0.304,3.938c-0.786,0.232-1.073,0.343-1.895,0.649c0,0-5.955,3.847-8.367,6.817   c-9.985,5.785-21.596,2.537-22.32,11.523C8.514,78.183,7.126,86.598,6.18,91.587C5.061,100.747,98.445,99.507,97.044,91.587z    M47.085,96.822c-5.595-8.009-11.775-20.798-8.247-36.98c0.145-0.418-0.413-0.67-0.62-1.938c0.526-1.347,1.487-3.319,2.222-4.674   l1.723,0.961c0.349,0.217,0.705,0.415,1.067,0.598l6.713,3.744l-5.859,9.996c0,0,2.882-4.087,4.58-5.368   c0.484-0.211,0.499,1.127,1.326,1.266C48.744,70.954,46.108,83.414,47.085,96.822z"/>
</g>
<g id="Your_Icon">
</g>
</svg>